<svg xmlns="http://www.w3.org/2000/svg" viewBox="0 0 800 800" role="img" aria-label="Holiday image placeholder">
  <defs>
    <linearGradient id="bg" x1="0" y1="0" x2="0" y2="1">
      <stop offset="0%" stop-color="#7dd3fc"/>
      <stop offset="55%" stop-color="#38bdf8"/>
      <stop offset="100%" stop-color="#0ea5e9"/>
    </linearGradient>
    <linearGradient id="sea" x1="0" y1="0" x2="0" y2="1">
      <stop offset="0%" stop-color="#22d3ee"/>
      <stop offset="100%" stop-color="#0891b2"/>
    </linearGradient>
  </defs>
  <rect x="0" y="0" width="800" height="800" fill="url(#bg)"/>
  <circle cx="620" cy="160" r="70" fill="#fde68a" opacity="0.9"/>
  <polygon points="0,560 260,420 520,560" fill="#0f172a" opacity="0.25"/>
  <polygon points="160,560 420,380 680,560" fill="#0f172a" opacity="0.35"/>
  <rect x="0" y="560" width="800" height="240" fill="url(#sea)"/>
  <g transform="translate(110,380) scale(1.1)">
    <rect x="-20" y="180" width="40" height="120" rx="8" fill="#0f172a" opacity="0.55"/>
    <path d="M0 0 C 120 20, 140 80, 40 120 C 160 120, 160 180, 40 200" fill="none" stroke="#0f172a" stroke-width="26" stroke-linecap="round" opacity="0.55"/>
    <path d="M0 30 C 80 10, 90 50, 20 80" fill="none" stroke="#0f172a" stroke-width="18" stroke-linecap="round" opacity="0.55"/>
    <path d="M0 70 C 90 60, 110 100, 30 130" fill="none" stroke="#0f172a" stroke-width="18" stroke-linecap="round" opacity="0.55"/>
  </g>
  <text x="50%" y="92%" text-anchor="middle" font-family="Inter, system-ui, -apple-system, Segoe UI, Roboto, Ubuntu, Cantarell, Noto Sans, Helvetica, Arial, 'Apple Color Emoji', 'Segoe UI Emoji'" font-size="28" fill="#e6f4ff" opacity="0.9">No cover photo</text>
</svg>


